<svg xmlns="http://www.w3.org/2000/svg" xmlns:xlink="http://www.w3.org/1999/xlink" width="114.238" height="162.584" viewBox="0 0 114.238 162.584"><defs><style>.a{fill:#fff;}.b{fill:url(#a);}.c{fill:url(#b);}.d{fill:url(#c);}.e{fill:url(#d);}.f,.i{mix-blend-mode:screen;}.f,.i,.m{isolation:isolate;}.f{fill:url(#e);}.g{fill:#eefdff;}.h{fill:url(#f);}.i{fill:url(#g);}.j{fill:url(#i);}.k{fill:url(#j);}.l{fill:url(#k);}.m{mix-blend-mode:soft-light;fill:url(#l);}.n{fill:#244199;stroke:#fff;}</style><linearGradient id="a" x1="-0.958" y1="1.402" x2="0.489" y2="-1.147" gradientUnits="objectBoundingBox"><stop offset="0.04" stop-color="#06bed8"/><stop offset="1" stop-color="#defa8e"/></linearGradient><linearGradient id="b" x1="-0.958" y1="-0.402" x2="0.489" y2="2.147" xlink:href="#a"/><linearGradient id="c" x1="0.18" y1="1.234" x2="0.788" y2="-0.16" gradientUnits="objectBoundingBox"><stop offset="0.04" stop-color="#06cff1"/><stop offset="1" stop-color="#defa8e"/></linearGradient><linearGradient id="d" x1="0.164" y1="1.011" x2="0.838" y2="0.125" gradientUnits="objectBoundingBox"><stop offset="0" stop-color="#06cff1"/><stop offset="0.04" stop-color="#06cff1"/><stop offset="1" stop-color="#ffd226"/></linearGradient><radialGradient id="e" cx="10.084" cy="10.084" r="9.98" gradientUnits="userSpaceOnUse"><stop offset="0.13" stop-color="#3280fc"/><stop offset="1"/></radialGradient><linearGradient id="f" y1="0.5" x2="1" y2="0.5" gradientUnits="objectBoundingBox"><stop offset="0" stop-color="#030d14"/><stop offset="1" stop-color="#0b2f45"/></linearGradient><radialGradient id="g" cx="10.084" cy="10.084" r="9.98" xlink:href="#e"/><linearGradient id="i" x1="0.351" y1="0.614" x2="1.353" y2="-1.559" gradientUnits="objectBoundingBox"><stop offset="0.071" stop-color="#0da9ab"/><stop offset="1" stop-color="#defa8e"/></linearGradient><linearGradient id="j" x1="0.18" y1="0.839" x2="0.955" y2="-0.344" gradientUnits="objectBoundingBox"><stop offset="0" stop-color="#06cff1"/><stop offset="0.04" stop-color="#06cff1"/><stop offset="0.041" stop-color="#06cff0"/><stop offset="0.161" stop-color="#36d8da"/><stop offset="0.275" stop-color="#5ce0c9"/><stop offset="0.379" stop-color="#77e5bd"/><stop offset="0.472" stop-color="#88e8b5"/><stop offset="0.542" stop-color="#8eeab3"/><stop offset="0.8" stop-color="#b9f29e"/><stop offset="1" stop-color="#ffd226"/></linearGradient><linearGradient id="k" x1="0.278" y1="1.126" x2="1.21" y2="-2.092" xlink:href="#c"/><radialGradient id="l" cx="28.507" cy="11.67" r="69.632" gradientTransform="translate(16.836 9.714) scale(0.409 0.168)" gradientUnits="userSpaceOnUse"><stop offset="0" stop-color="#bcd7d6"/><stop offset="1" stop-color="#fff"/></radialGradient></defs><g transform="translate(-213 -104.074)"><g transform="translate(238.673 104.852)"><path class="a" d="M314.2,182.513c.048,1.7-1.341,3.738-2.933,3.913-1.492.163-2.684-1.361-3.913-2.933-1.211-1.55-3.86-5.53-2.8-6.656C305.941,175.352,314.086,178.5,314.2,182.513Z" transform="translate(-248.353 -152.679)"/><path class="a" d="M321.855,321.507a.544.544,0,1,1-.544-.544A.544.544,0,0,1,321.855,321.507Z" transform="translate(-255.251 -213.233)"/><g transform="translate(-25.673 0)"><path class="b" d="M11.332.847C24.7,4.509,27.863,3.484,30.246,7.068a8.168,8.168,0,0,1,1.391,5.213,7.755,7.755,0,0,1-2.174,4.54c-4.581,4.434-17.185-.991-24.4-6.924C3.484,8.6-.739,5.135.112,2.67A3.691,3.691,0,0,1,2.32.811C5.754-.726,9.316.294,11.332.847Z" transform="translate(4.149 80.953) rotate(13)"/><path class="c" d="M11.332,17.859c13.372-3.716,16.531-2.676,18.914-6.314a8.374,8.374,0,0,0,1.391-5.29,7.913,7.913,0,0,0-2.174-4.607c-4.581-4.5-17.185,1.005-24.4,7.026C3.484,9.987-.739,13.508.112,16.009A3.705,3.705,0,0,0,2.32,17.9C5.754,19.455,9.316,18.419,11.332,17.859Z" transform="translate(114.238 102.091) rotate(167)"/><rect class="d" width="24.904" height="12.273" rx="4.517" transform="translate(45.118 11.967)"/><rect class="e" width="89.112" height="67.768" rx="33.884" transform="translate(13.013 17.836)"/><g transform="translate(33.391 41.637)"><ellipse class="f" cx="10.084" cy="10.084" rx="10.084" ry="10.084"/><g transform="translate(2.846 2.846)"><ellipse class="g" cx="7.238" cy="7.238" rx="7.238" ry="7.238"/></g><g transform="translate(4.005 4.005)"><ellipse class="h" cx="6.079" cy="6.079" rx="6.079" ry="6.079"/></g><g transform="translate(9.474 6.257)"><path class="g" d="M246.486,220.743a2.252,2.252,0,1,1-2.252-2.252A2.252,2.252,0,0,1,246.486,220.743Z" transform="translate(-241.982 -218.491)"/></g><g transform="translate(8.287 13.847)"><circle class="g" cx="0.898" cy="0.898" r="0.898"/></g><g transform="translate(6.058 12.948)"><path class="g" d="M237,230.459a.449.449,0,1,1-.449-.449A.449.449,0,0,1,237,230.459Z" transform="translate(-236.102 -230.01)"/></g></g><g transform="translate(60.633 41.637)"><ellipse class="i" cx="10.084" cy="10.084" rx="10.084" ry="10.084"/><g transform="translate(2.846 2.846)"><circle class="g" cx="7.238" cy="7.238" r="7.238"/></g><g transform="translate(4.005 4.005)"><ellipse class="h" cx="6.079" cy="6.079" rx="6.079" ry="6.079"/></g><g transform="translate(9.474 6.257)"><path class="g" d="M293.379,220.743a2.252,2.252,0,1,1-2.252-2.252A2.252,2.252,0,0,1,293.379,220.743Z" transform="translate(-288.875 -218.491)"/></g><g transform="translate(8.287 13.847)"><circle class="g" cx="0.898" cy="0.898" r="0.898"/></g><g transform="translate(6.059 12.948)"><path class="g" d="M283.893,230.459a.449.449,0,1,1-.449-.449A.449.449,0,0,1,283.893,230.459Z" transform="translate(-282.995 -230.01)"/></g></g><circle class="a" cx="1.267" cy="1.267" r="1.267" transform="translate(74.069 20.504)"/><path class="a" d="M16.015,13.974c-.407.287-3.241-5.487-10.85-10.494C2.49,1.721-.151.466.007.1S3.14.419,5.52,1.524C13.106,5.043,16.5,13.633,16.015,13.974Z" transform="translate(63.387 36.443) rotate(-41)"/><path class="a" d="M16.015,13.974c-.407.287-3.241-5.487-10.85-10.494C2.49,1.721-.151.466.007.1S3.14.419,5.52,1.524C13.106,5.043,16.5,13.633,16.015,13.974Z" transform="translate(25.44 36.443) rotate(-41)"/><path class="a" d="M279.393,160.454c-.091.013-.149-.52-.592-1.343a7.213,7.213,0,0,0-.445-.712c-.764-1.051-3.354-1.028-3.557-1.026-4.033.035-6.627-.221-6.626-.2s1.892-.018,3.278-.046c3.91-.08,6.24-.29,7.238.758a3.28,3.28,0,0,1,.623,1A2.1,2.1,0,0,1,279.393,160.454Z" transform="translate(-210.092 -144.854)"/><path class="j" d="M286.85,253.656a15.768,15.768,0,0,1-30.676,3.253,3.649,3.649,0,0,0,3.755,2.208l23.621-2.274A3.645,3.645,0,0,0,286.85,253.656Z" transform="translate(-214.079 -185.463)"/><path class="k" d="M279.392,297.747c0,.123,0,.24-.006.352a8.237,8.237,0,0,1-.432,2.342c-3.676,11.232-5.88,17.156-8.97,21.947-.533.827-1.094,1.622-1.7,2.4-.789,1.041-1.654,2.055-2.614,3.1a15.685,15.685,0,0,1-6.4,3.735,26.228,26.228,0,0,1-9.4,1.121h-.39a26.216,26.216,0,0,1-9.4-1.121,15.649,15.649,0,0,1-6.4-3.735c-5.87-6.387-8.127-11.7-13.281-27.449a8.226,8.226,0,0,1-.427-2.2,8.533,8.533,0,0,1-.005-.913,9.556,9.556,0,0,1,2.23-5.416,12.36,12.36,0,0,1,9.616-4.493l17.87-.074,17.545-.069a12.661,12.661,0,0,1,9.867,4.5,9.8,9.8,0,0,1,2.177,4.53c.038.224.07.454.091.678C279.376,297.24,279.392,297.491,279.392,297.747Z" transform="translate(-189.883 -199.423)"/><path class="l" d="M249.678,287.35l-17.871.075a12.359,12.359,0,0,0-9.615,4.493,9.557,9.557,0,0,0-2.231,5.416,9.469,9.469,0,0,1,2.3-5.55,12.656,12.656,0,0,1,9.867-4.5Z" transform="translate(-189.888 -199.425)"/><ellipse class="m" cx="28.507" cy="11.67" rx="28.507" ry="11.67" transform="translate(30.103 138.465)"/><path class="n" d="M1574.193,903.83l-.99.86s-.361-13.884-1.526-17.364c0,0-2.652-7.838-6.761-9.375,0,0,3.614-9.653-5.829-12.856,0,0-11.453,8.969-30.163,8.905,0,0-13.027.769-24.83-5.51a8.078,8.078,0,0,0-.524,8.265s-7.606,6.215-8.568,13.839c0,0-.389,9.975.211,12.54a16.241,16.241,0,0,1-3.326-2.441c-2.124-1.773-2.995-4.059-3.727-6.356-2.264-7.106-2.278-17.971-.3-23.774,0,0,2.914-9.738,5.479-10.507,0,0-5.828-13.838-4.6-17.383,0,0,3.439,6.748,14.921,5.937,0,0-4.9-5.211-3.789-10.763,0,0,8.743,5,18.01,3.673a60.911,60.911,0,0,0,9.706-1.615,33.6,33.6,0,0,1,4.992-1.1c6.523-.882,20.467-1.848,27.21,4.633,0,0,5.333,4.293,6.207,8.617,0,0,14.338,7.784,15.038,21.366,0,0,1.259,9.857-.391,18.541a23.719,23.719,0,0,1-3.647,8.715h0A15.8,15.8,0,0,1,1574.193,903.83Z" transform="translate(-1476.176 -837.845)"/><path class="a" d="M1677.387,1565.232a1.839,1.839,0,0,0-1.718-1.628,9.988,9.988,0,0,1-4.157-1.692,24.266,24.266,0,0,0-9.839-3.818,26.639,26.639,0,0,0-9.533.568,18.765,18.765,0,0,0-8.626,4.884c-.543.492-1.066,1.009-1.6,1.513a1.85,1.85,0,0,1-2.7.249,4.692,4.692,0,0,0-5.925,0,1.85,1.85,0,0,1-2.7-.249c-.53-.5-1.053-1.022-1.6-1.513a18.764,18.764,0,0,0-8.626-4.884,26.638,26.638,0,0,0-9.532-.568,24.268,24.268,0,0,0-9.839,3.818,9.989,9.989,0,0,1-4.156,1.692,1.839,1.839,0,0,0-1.718,1.628c-.1.472-.166.951-.256,1.43v1.813a3.954,3.954,0,0,0,.773.875,4.582,4.582,0,0,1,2.177,3.212,38.609,38.609,0,0,0,.952,3.882,15.093,15.093,0,0,0,6.283,8.715c4.125,2.631,8.492,3.8,13.331,2.541a18.34,18.34,0,0,0,9.054-5.057,19.36,19.36,0,0,0,4.24-7.611c.281-.862.5-1.737.779-2.6a2.715,2.715,0,0,1,2.343-2.024c.479-.051.971-.083,1.456-.1.485.013.977.044,1.456.1a2.716,2.716,0,0,1,2.344,2.024c.281.862.5,1.737.779,2.6a19.359,19.359,0,0,0,4.24,7.611,18.342,18.342,0,0,0,9.054,5.057c4.84,1.258,9.207.089,13.332-2.541a15.093,15.093,0,0,0,6.283-8.715,38.576,38.576,0,0,0,.952-3.882,4.581,4.581,0,0,1,2.177-3.212,3.937,3.937,0,0,0,.772-.875v-1.813C1677.553,1566.183,1677.49,1565.7,1677.387,1565.232Zm-54.437,18.076a14.61,14.61,0,0,1-8.639,2.65,13.862,13.862,0,0,1-10.414-4.75,12.19,12.19,0,0,1,.473-16.792,14.474,14.474,0,0,1,20.457.026A12.314,12.314,0,0,1,1622.95,1583.308Zm45.664-2.1a13.862,13.862,0,0,1-10.413,4.75,14.61,14.61,0,0,1-8.639-2.65,12.314,12.314,0,0,1-1.877-18.867,14.474,14.474,0,0,1,20.457-.026A12.19,12.19,0,0,1,1668.615,1581.207Z" transform="translate(-1578.689 -1521.362)"/><path class="g" d="M273.275,252.4a2.058,2.058,0,0,1-1.869,1.8l-13.358,1.288a2.057,2.057,0,0,1-2.179-1.412,8.933,8.933,0,0,1-.288-1.277.443.443,0,0,1,.089-.34.449.449,0,0,1,.309-.17l16.853-1.625a.439.439,0,0,1,.481.418A8.975,8.975,0,0,1,273.275,252.4Z" transform="translate(-206.872 -179.081)"/></g></g><g transform="translate(264.188 200.547)"><g transform="translate(0 0)"><path class="a" d="M4.119,21.447A7.736,7.736,0,0,1,0,20.305c.265.077.516.135.744.178a8.249,8.249,0,0,0,1.05.135l.075,0c.053,0,.106.005.162.005s.109,0,.162-.005l.068,0a8.26,8.26,0,0,0,1.057-.135,5.51,5.51,0,0,0,4.073-2.706c.894-1.788.584-4.268-.923-7.373l-.03-.061C4.933,7.263,4.762,4.752,5.93,2.881,7.352.6,10.282,0,11.632,0a2.838,2.838,0,0,1,.834.1V13.418c-.134,2.236-1,6.212-5.253,7.53a10.5,10.5,0,0,1-3.094.5Z" transform="translate(7.623 0)"/><path class="a" d="M4.119,21.447A7.736,7.736,0,0,1,0,20.305c.265.077.516.135.744.178a8.249,8.249,0,0,0,1.05.135l.075,0c.053,0,.106.005.162.005s.109,0,.162-.005l.068,0a8.26,8.26,0,0,0,1.057-.135,5.51,5.51,0,0,0,4.073-2.706c.894-1.788.584-4.268-.923-7.373l-.03-.061C4.933,7.263,4.762,4.752,5.93,2.881,7.352.6,10.282,0,11.632,0a2.838,2.838,0,0,1,.834.1V13.418c-.134,2.236-1,6.212-5.253,7.53a10.5,10.5,0,0,1-3.094.5Z" transform="translate(7.623 0)"/><path class="a" d="M16.682,21.174h0l-.009,0a8.6,8.6,0,0,1-.884.329c-.316.1-.629.179-.94.249v0l-.04.005a10.856,10.856,0,0,1-1.857.255c-.144.008-.287.012-.426.013h-.011a8.592,8.592,0,0,1-4.891-1.326h0a6.6,6.6,0,0,1-2.844-3.694c-.012-.042-.024-.084-.036-.128-.019-.071-.034-.144-.05-.217-.01-.049-.02-.1-.029-.149-.013-.072-.025-.146-.035-.222-.007-.05-.012-.1-.019-.167s-.015-.15-.02-.227c0-.047-.005-.1-.006-.144l0-.074c0-.065-.005-.13,0-.2s0-.113,0-.17l0-.111c0-.052,0-.1.006-.158.009-.144.023-.292.042-.445.005-.043.012-.087.019-.132l.013-.087c.013-.09.026-.179.043-.273.01-.052.045-.222.045-.222.02-.1.039-.193.063-.293.015-.064.059-.236.059-.236.026-.1.053-.2.084-.308.023-.08.047-.161.072-.243q.05-.162.107-.329c.028-.082.055-.163.085-.247.042-.118.088-.238.134-.359,0,0,.069-.18.094-.243.055-.136.115-.275.176-.416L5.72,11c.087-.2.179-.393.278-.6l.03-.061C7.533,7.263,7.7,4.752,6.536,2.881,5.114.6,2.184,0,.834,0A2.838,2.838,0,0,0,0,.1V13.7c0,7.728,5.6,10.47,10.411,10.469h.059c3.715,0,7.912-1.644,9.618-5.972A7.289,7.289,0,0,1,16.682,21.174Z" transform="translate(0 0)"/></g></g></g></svg>