<svg xmlns="http://www.w3.org/2000/svg" xmlns:xlink="http://www.w3.org/1999/xlink" width="1243.755" height="586.467" viewBox="0 0 1243.755 586.467"><defs><style>.a{fill:url(#a);}.b,.e{fill:none;stroke-miterlimit:10;}.b{stroke:#6d6873;}.c{clip-path:url(#b);}.d{fill:#ffd226;}.e{stroke:#fff;stroke-width:2px;}.f{fill:#fff;}.g{fill:#6d6873;font-size:25px;font-family:Helvetica;letter-spacing:0.2em;}.h{fill:#d9c8b9;mix-blend-mode:multiply;isolation:isolate;}.i{fill:#ffc94e;}.j{fill:#ffe494;}.k{fill:#ed925a;}.l{fill:#c9dff0;}.m{fill:#72819e;}.n{fill:#fcb88d;}.o{fill:#4f352e;}.p{fill:#fcdac5;}.q{fill:#e38462;}.r{fill:#753521;}.s{fill:#5c2415;}.t{fill:#de8971;}.u{fill:#364970;}.v{fill:#263c4e;}.w{fill:#34536a;}.x{fill:#cad5de;}.y{fill:#4f3525;}.z{fill:#a9b8c2;}.aa{fill:#654971;}.ab{fill:#ceb4db;}</style><linearGradient id="a" x1="1.369" y1="2.205" x2="0.477" y2="1.428" gradientUnits="objectBoundingBox"><stop offset="0" stop-color="#ffd226"/><stop offset="0.129" stop-color="#ffd226"/><stop offset="0.352" stop-color="#fff"/><stop offset="0.641" stop-color="#fff"/><stop offset="0.982" stop-color="#ffd226"/><stop offset="1" stop-color="#ffd226"/><stop offset="1" stop-color="#0055cb"/></linearGradient><clipPath id="b"><path class="a" d="M341.44,112.151C-126.143,265.264,347.407,596.605,452.66,525.4,540.412,466.035,636.489,15.535,341.44,112.151Z" transform="translate(-138.768 -98.622)"/></clipPath></defs><g transform="translate(-331 -2358.367)"><g transform="translate(283.495 2323.117)"><path class="b" d="M279,445.593h33.165V371.5" transform="translate(95.823 138.299)"/><line class="b" x2="95.298" transform="translate(187.826 469.044)"/><path class="b" d="M325.047,42h71.667V155.071" transform="translate(114.762 2.776)"/><line class="b" x2="120.479" transform="translate(94.681 275.523)"/><path class="b" d="M171.011,84h73.372v85.324" transform="translate(51.408 20.051)"/><g transform="translate(176.915 124.686)"><g class="c" transform="translate(0 0)"><path class="d" d="M341.44,112.151C-126.143,265.264,347.407,596.605,452.66,525.4,540.412,466.035,636.489,15.535,341.44,112.151Z" transform="translate(-138.768 -98.622)"/><line class="e" x1="166.355" y1="239.103" transform="translate(132.235 -35.207)"/><line class="e" x1="308.305" y1="93.939" transform="translate(-9.715 109.957)"/><line class="e" x1="298.591" y2="77.456" transform="translate(-0.001 203.896)"/><line class="e" x1="175.429" y2="224.292" transform="translate(123.161 203.896)"/></g></g><g transform="translate(293.225 395.315)"><path class="f" d="M190.809,224.545c-.006.1-.025.206-.025.31s0,.209.007.311.014.206.024.308c.016.152.035.3.062.452s.066.322.107.48a5.926,5.926,0,0,0,.308.878c.017.041.035.082.054.121.066.141.137.279.212.412.024.042.047.082.071.121a6.115,6.115,0,0,0,.926,1.191c.071.069.143.138.216.2s.134.119.2.176c.045.038.09.073.138.11.1.08.207.158.315.23l.047.032a5.56,5.56,0,0,0,.484.291c.121.066.246.128.374.186l.025.011a6.222,6.222,0,0,0,.876.315c.064.017.128.032.193.048.3.072.615.563.934.587.1.007.206.457.309.457h.312c.1,0,.207-.45.309-.457.319-.024.632-.294.936-.366.064-.016.128-.143.192-.159a5.993,5.993,0,0,0,.876-.37c.008,0,.018-.035.025-.038.143-.065.282-.148.418-.224.151-.082.3-.179.44-.274l.048-.035c.107-.073.212-.152.315-.233l.137-.11c.069-.058.138-.119.2-.178.04-.035.078-.071.116-.107a6.046,6.046,0,0,0,1.026-1.289c.024-.039.047-.079.069-.121.076-.133.147-.271.213-.412.018-.039.037-.08.054-.121a5.924,5.924,0,0,0,.308-.878c.041-.158.078-.318.107-.48s.048-.3.064-.452c.01-.1.017-.2.023-.308s.008-.206.008-.311,0-.207-.008-.31c0-.055-.007-.11-.011-.164s-.007-.1-.011-.143c-.016-.152-.038-.3-.064-.453s-.066-.322-.107-.478a5.926,5.926,0,0,0-.308-.878c-.017-.041-.035-.082-.054-.121-.066-.141-.137-.279-.213-.414-.023-.041-.045-.08-.069-.12a6.023,6.023,0,0,0-1.027-1.291q-.055-.053-.114-.106c-.065-.059-.134-.119-.2-.176l-.137-.11c-.1-.079-.207-.157-.315-.23l-.048-.031a5.979,5.979,0,0,0-.858-.478l-.025-.011a5.927,5.927,0,0,0-.876-.313l-.192-.049a6.012,6.012,0,0,0-.936-.145c-.1-.008-.206-.014-.309-.016h-.312c-.1,0-.206.007-.309.016a5.994,5.994,0,0,0-.934.145c-.065.016-.13.032-.193.049a6.045,6.045,0,0,0-.876.313l-.025.011a5.979,5.979,0,0,0-.858.478l-.047.031c-.107.073-.213.151-.315.23-.048.037-.093.073-.138.11-.069.058-.137.117-.2.176l-.114.107a6.049,6.049,0,0,0-1.027,1.29c-.024.039-.047.079-.069.12-.076.134-.147.272-.212.414-.01.02-.02.04-.028.059l-.027.062a5.914,5.914,0,0,0-.3.878c-.042.157-.075.318-.1.478-.02.113-.032.224-.045.339-.006.038,0,.075,0,.114a1.059,1.059,0,0,0,.007.116h0C190.84,224.419,190.812,224.483,190.809,224.545Z" transform="translate(-169.685 -218.815)"/><path class="f" d="M190.829,222.755l-.02-.013-.089-.044.016.01A.571.571,0,0,0,190.829,222.755Z" transform="translate(-169.711 -217.218)"/><path class="f" d="M190.8,222.742h0l0,0Z" transform="translate(-169.679 -217.201)"/><path class="f" d="M188.019,239.442c0,.13-.023.133.1.133h19.738c.121,0-.082,0-.082-.133v-6.256c0-.1.13-.206.124-.306a5.874,5.874,0,0,0-4.392-5.57,8.231,8.231,0,0,1-.8.682c-.048.035-.085.079-.133.079h0a7.076,7.076,0,0,1-1.384.838c-.1.044-.605.133-.707.174-.254.1-1.18.446-1.18.446v.168h.439c-.066,0-.092-.13-.159-.114a7.778,7.778,0,0,1-1.626.089,7.879,7.879,0,0,1-1.434-.169,7.779,7.779,0,0,1-1.414-.423c-.12-.047-.237-.1-.354-.157A8.274,8.274,0,0,1,193,227.858a7.832,7.832,0,0,1-.612-.535c-.161.038-.318.08-.473.131l-.117.04c-.172.061-.342.131-.508.209-.037.017-.072.034-.107.052a5.8,5.8,0,0,0-1.61,1.187l-.083.089a6.062,6.062,0,0,0-1.534,3.854c0,.1.066.2.066.3Z" transform="translate(-170.849 -215.321)"/><path class="f" d="M179.2,244.545v0h0c0,.063-.306.126-.309.189-.006.1-.154.206-.154.311s-.073.207-.068.31-.024.206-.014.308c.016.152.018.3.045.452s.055.322.1.48a5.862,5.862,0,0,0,.3.878c.017.041.034.08.052.121.065.14.134.278.21.414.023.039.045.079.071.12a5.965,5.965,0,0,0,.924,1.19c.071.071.143.14.216.206s.134.119.2.176l.137.111c.1.079.207.155.316.23l.047.031c.155.1.318.2.483.291.123.066.247.128.375.186l.025.011a5.827,5.827,0,0,0,.876.313c.063.018.128.034.192.049a6.013,6.013,0,0,0,.936.145c.1.008.206.014.309.016.051,0,.1,0,.157,0s.1,0,.155,0c.1,0,.206-.007.309-.016a5.994,5.994,0,0,0,.934-.145c.065-.016.13-.031.193-.049a5.828,5.828,0,0,0,.876-.313l.025-.011c.143-.065.282-.134.418-.21.151-.083.3-.172.442-.267l.045-.031c.107-.075.213-.151.315-.23.048-.037.093-.075.14-.111.068-.058.135-.116.2-.176.04-.035.078-.071.116-.107a6.046,6.046,0,0,0,1.026-1.289l.071-.12c.075-.135.145-.274.212-.414l.055-.121a6.214,6.214,0,0,0,.306-.878c.042-.158.078-.318.106-.48s.049-.3.064-.452c.011-.1.018-.2.024-.308s.008-.206.008-.31,0-.207-.008-.311c0-.055-.006-.11-.011-.164s-.007-.1-.013-.143q-.021-.231-.064-.453c-.028-.161-.064-.322-.106-.48a6.212,6.212,0,0,0-.306-.878l-.055-.121c-.066-.141-.137-.278-.212-.414l-.071-.12a6.062,6.062,0,0,0-1.027-1.29c-.038-.035-.075-.071-.114-.106-.066-.061-.134-.119-.2-.175-.047-.038-.092-.075-.14-.112-.1-.08-.207-.157-.315-.23l-.045-.032a6.2,6.2,0,0,0-.859-.477l-.025-.011a5.991,5.991,0,0,0-.876-.313c-.064-.018-.128-.034-.193-.051a6.351,6.351,0,0,0-.934-.145c-.1-.007-.206-.013-.309-.014l-.155,0-.157,0c-.1,0-.206.007-.309.014a6.37,6.37,0,0,0-.936.145c-.063.017-.128.032-.192.051a5.989,5.989,0,0,0-.876.313l-.025.011a6.109,6.109,0,0,0-.858.477l-.047.032c-.109.073-.213.15-.316.23-.045.037-.092.073-.137.112-.069.056-.138.114-.2.175-.04.035-.078.072-.114.107a6.041,6.041,0,0,0-1.027,1.289c-.024.041-.047.08-.071.12-.075.135-.145.272-.212.414-.01.021-.018.041-.027.061l-.027.061a5.887,5.887,0,0,0-.309.878c-.041.158-.078.319-.106.48-.02.111-.038.224-.051.337-.006.038-.011.076-.016.116a.935.935,0,0,0-.014.11l-.014-.007c-.027-.016-.061-.031-.089-.044l.316.007C178.845,244.515,179.2,244.529,179.2,244.545Z" transform="translate(-174.736 -210.51)"/><path class="f" d="M191.3,247.5a8.14,8.14,0,0,1-.823.679.268.268,0,0,1-.144.072h0a7.043,7.043,0,0,1-1.39.841c-.1.045-.454.138-.557.178a4.621,4.621,0,0,1-1.027.109v-.19h0v.19s-.028.127-.093.143a7.537,7.537,0,0,1-1.593.22,7.383,7.383,0,0,1-2.824-.5c-.12-.047-.231-.089-.35-.141a8.318,8.318,0,0,1-1.76-1.056,7.793,7.793,0,0,1-.613-.531c-.161.038-.318.082-.473.134-.04.013-.078.025-.116.04-.174.062-.344.131-.509.209l-.11.054a5.805,5.805,0,0,0-1.612,1.187c-.03.03-.061.059-.087.089a5.908,5.908,0,0,0-1.37,3.856c-.006.1.22.2.22.3v6.256c0,.128-.33-.141-.207-.141H195.6c.124,0,.227.27.227.141v-6.256c0-.1-.024-.209-.03-.308A5.973,5.973,0,0,0,191.3,247.5Z" transform="translate(-175.834 -207.017)"/><path class="f" d="M202.61,244.41c.006,0,.289.006.294.008s.264.027.264.039h0c0,.062-.241.126-.244.189-.006.1-.1.206-.1.31s-.066.207-.061.31-.021.206-.011.306c.016.154.02.3.045.453s.056.322.1.48a6.191,6.191,0,0,0,.3.878c.018.041.034.08.054.12.065.143.136.279.21.415.024.04.047.08.069.119a6.027,6.027,0,0,0,.924,1.191c.071.071.143.14.216.206s.134.119.2.176l.138.11c.1.08.207.157.315.23l.047.032c.157.1.319.2.484.291.123.066.247.128.374.186l.025.011a6,6,0,0,0,.878.313c.064.017.127.034.192.049a6.02,6.02,0,0,0,.934.145c.1.008.206.014.31.016l.155,0,.157,0c.1,0,.206-.007.309-.016a5.994,5.994,0,0,0,.934-.145c.065-.016.128-.032.193-.049a6.045,6.045,0,0,0,.876-.313l.025-.011c.143-.065.282-.135.418-.21.151-.082.3-.172.44-.267l.047-.032c.109-.073.213-.15.316-.23l.137-.11c.069-.058.137-.116.2-.176.04-.035.078-.072.116-.107a6.1,6.1,0,0,0,1.026-1.29c.024-.038.047-.079.069-.119.076-.135.147-.272.212-.415.02-.04.038-.079.055-.12a6.035,6.035,0,0,0,.308-.878c.041-.158.078-.318.106-.48s.048-.3.064-.453c.011-.1.018-.2.023-.306s.008-.206.008-.31,0-.209-.008-.31c0-.055-.006-.11-.01-.165s-.007-.095-.013-.143c-.016-.152-.037-.3-.064-.452s-.065-.322-.106-.48a6.036,6.036,0,0,0-.308-.878c-.017-.041-.035-.08-.055-.121-.065-.141-.135-.278-.212-.412-.023-.041-.045-.082-.069-.12a6.077,6.077,0,0,0-1.027-1.291l-.114-.106c-.066-.059-.134-.119-.2-.176l-.137-.11c-.1-.079-.207-.157-.316-.23l-.047-.031a5.983,5.983,0,0,0-.858-.478l-.025-.011a6.214,6.214,0,0,0-.876-.315c-.065-.017-.128-.034-.193-.048a5.653,5.653,0,0,0-.934-.1c-.1-.008-.206.028-.309.028h-.312c-.1,0-.207-.037-.31-.028a5.84,5.84,0,0,0-.934.123c-.065.016-.128.02-.192.037a5.991,5.991,0,0,0-.878.31l-.025.007a6.184,6.184,0,0,0-.858.476l-.047.032c-.107.073-.212.148-.315.229l-.138.111c-.069.056-.137.116-.2.175l-.114.107a6.017,6.017,0,0,0-1.026,1.29c-.024.038-.048.079-.071.12-.076.134-.147.271-.212.412l-.03.061c-.008.02-.02.04-.027.061a5.89,5.89,0,0,0-.312.878c-.041.158-.082.318-.11.48-.021.113-.048.224-.062.337-.006.038-.032.078-.037.114a.224.224,0,0,1-.041.076l-.034-.017Z" transform="translate(-164.827 -210.522)"/><path class="f" d="M215.407,247.446a8.566,8.566,0,0,1-.821.706c-.048.035-.1.123-.144.123h0a6.812,6.812,0,0,1-1.389.775c-.1.044-.2.179-.3.217-.254.1-.322.375-.583.375h.58v-.323s-.668.119-.735.133a10.679,10.679,0,0,1-1.912.23,9.466,9.466,0,0,1-1.578-.117,8.547,8.547,0,0,1-1.486-.4c-.12-.047-.272-.092-.391-.144a8.424,8.424,0,0,1-1.78-1.057c-.212-.167-.426-.343-.622-.531-.159.037-.322.08-.477.133l-.119.04c-.174.062-.343.131-.508.209-.038.017-.072.035-.11.054a5.807,5.807,0,0,0-1.606,1.187c-.028.028-.049.059-.078.089A5.976,5.976,0,0,0,199.89,253c0,.1.155.2.155.3v6.256c0,.128-.2-.038-.078-.038h19.738c.123,0,.1.167.1.038V253.3c0-.1.041-.2.035-.295A5.9,5.9,0,0,0,215.407,247.446Z" transform="translate(-165.939 -207.042)"/><path class="f" d="M204.261,252.126l.188-.236c.356-.447-.2-1.1-.649-1.458l-6.42-4.728v-7.589c0-.557.514-1.116-.044-1.116h-.35a1.113,1.113,0,0,0-1.018,1.116v7.246l-6.366,5.071a1.042,1.042,0,0,0-.164,1.458l.189.236a1.041,1.041,0,0,0,1.458.165l5.86-4.667,5.858,4.667A1.041,1.041,0,0,0,204.261,252.126Z" transform="translate(-170.33 -211.336)"/></g><g transform="translate(378.372 35.25)"><text class="g" transform="translate(33 19)"><tspan x="-32.808" y="0">01</tspan></text></g><g transform="translate(165.177 96.218)"><text class="g" transform="translate(33 19)"><tspan x="-32.808" y="0">02</tspan></text></g><g transform="translate(47.505 263.771)"><text class="g" transform="translate(33 19)"><tspan x="-32.808" y="0">03</tspan></text></g><g transform="translate(137.931 455.037)"><text class="g" transform="translate(33 19)"><tspan x="-32.808" y="0">04</tspan></text></g><g transform="translate(323.857 572.484)"><text class="g" transform="translate(33 19)"><tspan x="-32.808" y="0">05</tspan></text></g><g transform="translate(430.826 150.059)"><path class="f" d="M258.034,101.05l6.828-6.827L258.034,87.4l1.1-1.1a4.881,4.881,0,0,0-6.9-6.9l-1.1,1.1L244.3,73.664l-2.015,2.015v3.185a8.1,8.1,0,0,1,0,15.761V104.5h-5.911l-1.178,1.178,9.1,9.1,6.828-6.828.948.949a4.882,4.882,0,1,0,6.9-6.9Zm0,0" transform="translate(-209.995 -65.77)"/><path class="f" d="M29.074,35.512V25.856h1.341a4.881,4.881,0,1,0,0-9.763H29.074V6.437H19.419V4.882a4.881,4.881,0,1,0-9.763,0V6.437H0v9.656H1.341A4.889,4.889,0,0,1,6.127,20.01a1.652,1.652,0,0,1,0,1.928,4.889,4.889,0,0,1-4.785,3.917H0v9.656H9.656V33.956a4.881,4.881,0,0,1,9.763,0v1.556Zm0,0"/></g><g transform="translate(313.481 210.105)"><path class="f" d="M21.779,0A21.779,21.779,0,1,0,43.557,21.779,21.8,21.8,0,0,0,21.779,0Zm8.658,22.542-12.7,8.167a.907.907,0,0,1-1.4-.763V13.612a.907.907,0,0,1,1.4-.763l12.7,8.167a.907.907,0,0,1,0,1.526Z"/></g><path class="f" d="M51.518,17.277V12.63A3.634,3.634,0,0,0,47.888,9H30.239a2.4,2.4,0,0,0-1.711.709L5.538,32.7a2.422,2.422,0,0,0,0,3.422L24.4,54.98a2.422,2.422,0,0,0,3.422,0L39.544,43.254a9.228,9.228,0,0,0,7.134,3.86c6,0,10.89-7.056,10.89-15.73C57.568,25.337,55.212,19.9,51.518,17.277Zm-4.84,27.418c-4.671,0-8.47-5.971-8.47-13.31a17.28,17.28,0,0,1,2.936-10.03,1.21,1.21,0,0,0-1.952-1.431,16.538,16.538,0,0,0-2.211,4.321,4.83,4.83,0,1,1,4.9.719,16.409,16.409,0,0,0-1.252,6.42,14.841,14.841,0,0,0,2.342,8.444l7.839-7.839a2.4,2.4,0,0,0,.709-1.711V20.51c2.228,2.471,3.63,6.526,3.63,10.875C55.148,38.724,51.348,44.695,46.678,44.695Z" transform="translate(230.646 294.124)"/><g transform="translate(412.413 480.037)"><g transform="translate(18.257 16.86)"><path class="f" d="M201.589,181a5.589,5.589,0,1,0,5.589,5.589A5.594,5.594,0,0,0,201.589,181Z" transform="translate(-196 -181)"/></g><path class="f" d="M46.524,19.674l-3.712-.6a19.372,19.372,0,0,0-2.18-5.255l2.134-2.99a1.4,1.4,0,0,0-.149-1.8L38.666,5.075a1.392,1.392,0,0,0-1.8-.149L33.876,7.06a19.37,19.37,0,0,0-5.255-2.18l-.6-3.712A1.4,1.4,0,0,0,26.641,0H21.052a1.4,1.4,0,0,0-1.378,1.168l-.6,3.712a19.372,19.372,0,0,0-5.255,2.18l-2.99-2.134a1.391,1.391,0,0,0-1.8.149L5.075,9.026a1.4,1.4,0,0,0-.149,1.8l2.134,2.99A19.37,19.37,0,0,0,4.88,19.07l-3.712.6A1.4,1.4,0,0,0,0,21.052v5.589a1.4,1.4,0,0,0,1.168,1.378l3.712.6a19.372,19.372,0,0,0,2.18,5.255l-2.134,2.99a1.4,1.4,0,0,0,.149,1.8l3.952,3.952a1.4,1.4,0,0,0,1.8.149l2.99-2.134a19.37,19.37,0,0,0,5.255,2.18l.6,3.712a1.4,1.4,0,0,0,1.378,1.168h5.589a1.4,1.4,0,0,0,1.378-1.168l.6-3.712a19.372,19.372,0,0,0,5.255-2.18l2.99,2.134a1.4,1.4,0,0,0,1.8-.149l3.952-3.952a1.4,1.4,0,0,0,.149-1.8l-2.134-2.99a19.37,19.37,0,0,0,2.18-5.255l3.712-.6a1.4,1.4,0,0,0,1.168-1.378V21.052A1.4,1.4,0,0,0,46.524,19.674ZM23.846,39.216a15.37,15.37,0,1,1,15.37-15.37A15.387,15.387,0,0,1,23.846,39.216Z"/><g transform="translate(14.536 27.733)"><path class="f" d="M171.819,297.732a8.271,8.271,0,0,1-12.909,0,9.856,9.856,0,0,0-2.855,4.49,12.421,12.421,0,0,0,18.619,0A9.856,9.856,0,0,0,171.819,297.732Z" transform="translate(-156.055 -297.732)"/></g></g></g><rect class="f" width="387" height="270" rx="135" transform="translate(684.755 2529)"/><g transform="translate(1072.079 2434.558)"><g transform="translate(52.154 95.658)"><ellipse class="h" cx="223.445" cy="30.627" rx="223.445" ry="30.627" transform="translate(3.631 350.98)"/><path class="i" d="M3210.634,535c150.688-6.4,188.689,296.917,176.067,353.714s-176.787,58.419-241.43,58.419-204.808-4.192-197.833-107.035c3.487-51.422,35.923-81.076,67.487-97.876,35.432-18.858,60.6-52.68,70.131-91.671C3097.58,599.282,3129.552,538.436,3210.634,535Z" transform="translate(-2947.187 -534.896)"/><path class="j" d="M3248.482,568.211s75.277,29.76,77.027,136.548-47.1,77.624-106.356,79.233c-61.072,1.659-177.214,5.876-149.153-7.6s51.659-36.605,61.7-52.4C3161.452,677.2,3131.191,561.208,3248.482,568.211Z" transform="translate(-2998.271 -536.018)"/><path class="k" d="M2947.189,875.89C2968.95,947.2,3084.634,950.5,3141.641,950.5c64.642,0,228.808-1.623,241.43-58.419,7.843-35.293-3.873-165.767-50.018-257.974,31.558,85.68,64.542,196.338,24.5,247.383C3316.6,933.7,3045.166,945.22,2947.189,875.89Z" transform="translate(-2943.558 -538.27)"/></g><g transform="translate(137.096)"><g transform="translate(19.441 160.233)"><path class="l" d="M3287.438,601.744s-13.01,4.229-15.693,7.99-36.232,96.254-36.232,96.254L3205.5,765.094l11.4,2.3s48.583-63.015,45.462-68.932,33.258-66.937,30.882-70.3S3287.438,601.744,3287.438,601.744Z" transform="translate(-3205.496 -601.744)"/><path class="m" d="M3266.108,699.062c-1.267-2.4,14.9-23.721,18.463-38.5a364.365,364.365,0,0,1,.537-41.212l-24.757,80.24-10.272,3.491s7.739,2.358,6.79,7.06-38.956,57.3-38.956,57.3l2.733.552S3269.229,704.979,3266.108,699.062Z" transform="translate(-3209.243 -602.343)"/></g><g transform="translate(139.593 151.016)"><g transform="translate(76.641 32.499)"><path class="n" d="M3053.748,649.829l6.681-10.076,28.14.983s3.761,9.137,1.908,8.878-4.362,14.907-4.362,14.907l-25.534,1-5.656-7.779-13.3,7.438.474-7.861Z" transform="translate(-3041.621 -626.319)"/><g transform="translate(19.159 0)"><path class="o" d="M3044.136,668.387l19.559.932,6.226-39.787-28.2-1.344Z" transform="translate(-3039.811 -625.926)"/><path class="p" d="M3051.913,648.008c-.523-3.362-1.377-6.724-1.336-10.031a3.431,3.431,0,0,1,1.09-.31c2.988.143,5.217,4.3,4.979,9.288-.184,3.872-1.814,7.041-3.926,8.228A42.023,42.023,0,0,0,3051.913,648.008Z" transform="translate(-3035.105 -626.248)"/><path class="p" d="M3061.318,642.346c-.259,3.362.672,6.721,1.273,9.932.436,2.391.863,4.784,1.17,7.188a3.488,3.488,0,0,1-1.323.377c-2.988-.142-5.217-4.3-4.98-9.289C3057.641,646.721,3059.236,643.56,3061.318,642.346Z" transform="translate(-3048.834 -626.407)"/><rect class="p" width="19.628" height="1.684" transform="translate(23.849 44.791) rotate(-177.271)"/><rect class="p" width="32.059" height="1.684" transform="matrix(-0.999, -0.048, 0.048, -0.999, 32.023, 3.697)"/><rect class="p" width="4.834" height="0.775" transform="translate(10.914 1.005) rotate(-177.271)"/></g><path class="q" d="M3071.939,639.62l5.493.4,1.591.727s2.693,2.427-1.057,3.214c-.379.08-1.331,1.412-1.331,1.412s1.077,10.018-.885,11.18-10.656.276-11.642-.6.078-6.165.078-6.165Z" transform="translate(-3051.908 -626.315)"/><path class="n" d="M3048.838,639.6s-4.441,1.33-6.009,2.515,1,3.828,1,3.828l1.319,4.188s-2.4,9.548-1.179,11.368,3.854,1.6,3.854,1.6,2.589-13.568,2.907-13.622-.33-4.368-.807-4.575S3048.838,639.6,3048.838,639.6Z" transform="translate(-3002.126 -626.314)"/></g><path class="l" d="M3091.692,592.2s12.382,5.814,14.578,9.879.13,73.019.13,73.019l61.152-25.591,1.458,11.542s-66.416,43.821-72.087,40.273-17.052-80.588-14.276-83.63S3091.692,592.2,3091.692,592.2Z" transform="translate(-3082.218 -592.203)"/><path class="m" d="M3092.142,701.946c-3.3-1.622-8.228-24.548-9.925-39.658,3.546-19.49,8.609-51.835,8.609-51.835l2.263,85.79,4.237-9.988s1.783,7.891,6.542,7.29,60.011-34.639,60.011-34.639l.35,2.768S3099.1,705.369,3092.142,701.946Z" transform="translate(-3077.437 -592.824)"/></g><g transform="translate(84.234 141.257)"><path class="l" d="M3187.6,582.1s35.329,10.848,38.525,18.472-10.127,39.485-13.855,51.733,5.336,50.324,5.336,50.324c-14.948,18.344-21.866,19.544-47.186,19.584,0,0-11.941-52.25-13.793-58.64-.452-1.555-9.922-8.861-8.228-15.474C3157.615,612.1,3152.81,590.557,3187.6,582.1Z" transform="translate(-3148.193 -582.1)"/><path class="m" d="M3195.667,650.246c7.761-.151-6.208,9.936-7.6,12.2s18.385-6.27,25.8-7.467-20.84,11.132-28,10.306,6.445-11.838,2.973-10.811-19.18,11.486-17.118,7.983C3172.469,661.175,3187.906,650.4,3195.667,650.246Z" transform="translate(-3159.215 -584.417)"/><path class="m" d="M3157.925,683.385c4.13,17.511,9.774,42.208,9.774,42.208,11.234-.017,18.84-.273,25.138-2.144a258.531,258.531,0,0,0,21.656-19.139c-.031-.137-.074-.343-.11-.5-6.538,4.13-30.6,18.6-40.058,14.029-10.987-5.306-16.352-36.346-16.352-36.346S3157.95,682.216,3157.925,683.385Z" transform="translate(-3145.474 -585.48)"/></g><path class="m" d="M3188.7,577.321s10.9,1.141,13.288,4.617S3207,597,3207,597l-5.97,38.378s-14.586-16.141-14.889-15.065-10.739,8.608-10.739,8.608S3172.2,582.027,3188.7,577.321Z" transform="translate(-3070.391 -440.68)"/><path class="q" d="M3188.767,556.743s11.3,33.283,12.278,33.971-12.764,34.408-14.84,24.774-5.287-53.486-4.828-56.448S3188.767,556.743,3188.767,556.743Z" transform="translate(-3070.454 -439.978)"/><g transform="translate(38.734)"><path class="r" d="M3164.164,466.247s-10.769-19.363,0-24.334,24.866-8.112,26.453-4.449,14.407,20.149,13.361,28.784-34.878,10.467-34.878,10.467Z" transform="translate(-3090.923 -435.87)"/><path class="s" d="M3199.653,464.809c-3.877,9.37-18.586,6.3-18.586,6.3s7.351-2.308,12.286-6.3-1.7-16.641-1.7-16.641c3.152,16.317-15.651,17.449-15.651,17.449,3.009-1.292,6.052-17.611,6.052-17.611-1.927,4.846-10.556,9.532-10.556,9.532-3.114-12.279,11.307-19.065,11.307-19.065-16.039,4.847-16.757,14.581-16.757,14.581-1.616-2.708,1.13-9.41,1.13-9.41a22.1,22.1,0,0,0-7.463,3.862c-1.014,4.186.437,9.486,1.956,13.41a145.278,145.278,0,0,0,18.6,14.79c9.956-1.318,23.035-4.05,23.679-9.37.336-2.775-.767-6.362-2.463-10.072A27.012,27.012,0,0,1,3199.653,464.809Z" transform="translate(-3090.899 -435.958)"/><g transform="translate(12.132 102.336)"><path class="n" d="M3260.465,544.489s-11.442-5.106-13.688-1.222-2.836,11.961,6.63,13.691,9.879-7.626,9.879-7.626Z" transform="translate(-3245.387 -541.809)"/><path class="q" d="M3263.329,554.6a19.362,19.362,0,0,1-9.642-.987c-9.56-3.086-4.226-10.962-4.107-11.137,0,0-.337.326-.793.773-2.246,3.884-2.873,12,6.593,13.734C3259.521,557.738,3261.93,556.373,3263.329,554.6Z" transform="translate(-3247.361 -541.831)"/><path class="t" d="M3258.856,549.913a4.69,4.69,0,0,0-1.5-1.944,6.77,6.77,0,0,0-2.43-1.251,7.425,7.425,0,0,0-5.478.148.309.309,0,0,0-.149.464.4.4,0,0,0,.238.155c1.689.416,3.244.545,4.727.839a10.71,10.71,0,0,1,4.015,1.883.429.429,0,0,0,.508,0A.25.25,0,0,0,3258.856,549.913Z" transform="translate(-3244.7 -541.96)"/><path class="t" d="M3254.717,547.434a8.527,8.527,0,0,0-2.146,1.475,2.047,2.047,0,0,0-.726,2.3.388.388,0,0,0,.467.158.293.293,0,0,0,.219-.286c-.08-1.1,1.679-1.787,2.994-2.133a.843.843,0,0,0,.692-1.059,1.075,1.075,0,0,0-1.278-.54A1.272,1.272,0,0,0,3254.717,547.434Z" transform="translate(-3244.461 -541.996)"/></g><path class="n" d="M3182.424,485.4c0,5.556,0,68.9,4.12,76.384s11.95,17.2,16.4,20.534,22.182,18.525,32.526-.21c7.316-13.252,27.781-34.535,17.963-49.3-9.742-14.649-16.511-53.576-21.171-60.753S3182.424,485.4,3182.424,485.4Z" transform="translate(-3165.191 -437.049)"/><path class="q" d="M3260.693,522.426c-4.285-10.792-7.879-24.943-10.891-35.672l-22.38-13.691c-6.928,2.019-14.637,4.933-20.843,7.447l-11.7,8.833c.01,3.482-4.464,9.2-4.38,15.5l5.051-.742s11.239-7.907,16.441-7.283C3215.422,497.229,3242.578,512.241,3260.693,522.426Z" transform="translate(-3177.641 -437.135)"/><path class="r" d="M3188.47,486.211s21.173,13.853,31.845,15.855,30.838,30.759,30.838,30.759,13.385-11.887,15.052-36.233-20-41.652-20-41.652-66.91-9.278-74.248,20.4-5.605,46.835,6.271,61.406c0,0-10.59-28.548,3.954-43.231C3187.37,488.278,3188.47,486.211,3188.47,486.211Z" transform="translate(-3161.097 -436.472)"/><path class="s" d="M3260.68,476.911l-.455-.891c5.946,12.6-8.848,53.944-8.848,53.944-1.019-9.375-28.8-27.3-28.8-27.3-10.283-2.228-30.158-17.309-30.158-17.309l15.249-9.082c-11.995-1.2-19.193,1.543-32.966,14.567-7.822,7.4-7.841,20.918-6.4,31.23a45.358,45.358,0,0,0,8.294,15.441s-10.589-28.548,3.954-43.231c5.191-5.241,6.292-7.309,6.292-7.309s21.174,13.853,31.845,15.855,30.839,30.759,30.839,30.759,13.385-11.887,15.052-36.233A42.516,42.516,0,0,0,3260.68,476.911Z" transform="translate(-3159.469 -437.235)"/><g transform="translate(79.962 86.875)"><path class="n" d="M3178.034,528.476s11.411-5.092,13.65-1.218,2.828,11.929-6.611,13.654-9.854-7.605-9.854-7.605Z" transform="translate(-3175.22 -525.804)"/><path class="q" d="M3175.246,538.558a19.318,19.318,0,0,0,9.615-.983c9.534-3.079,4.215-10.933,4.095-11.107,0,0,.337.324.792.77,2.239,3.874,2.864,11.971-6.576,13.7C3179.043,541.689,3176.642,540.328,3175.246,538.558Z" transform="translate(-3173.32 -525.826)"/><path class="t" d="M3179.927,533.886a4.672,4.672,0,0,1,1.5-1.938,6.73,6.73,0,0,1,2.422-1.248,7.4,7.4,0,0,1,5.464.148.308.308,0,0,1,.148.463.409.409,0,0,1-.238.154c-1.686.414-3.235.543-4.715.837a10.683,10.683,0,0,0-4,1.877.427.427,0,0,1-.507,0A.249.249,0,0,1,3179.927,533.886Z" transform="translate(-3176.194 -525.955)"/><path class="t" d="M3184.233,531.415a8.46,8.46,0,0,1,2.14,1.47,2.04,2.04,0,0,1,.723,2.3.388.388,0,0,1-.465.158.294.294,0,0,1-.218-.286c.08-1.093-1.674-1.782-2.985-2.127a.841.841,0,0,1-.69-1.056,1.069,1.069,0,0,1,1.273-.538A1.224,1.224,0,0,1,3184.233,531.415Z" transform="translate(-3176.61 -525.99)"/></g><path class="s" d="M3220.526,535.466c.912,3.651.152,6.984-1.7,7.448s-4.091-2.121-5-5.772-.152-6.985,1.7-7.447S3219.614,531.815,3220.526,535.466Z" transform="translate(-3160.017 -439.059)"/><path class="s" d="M3252.637,540.449c.913,3.651.027,7.016-1.978,7.517s-4.371-2.051-5.284-5.7-.027-7.016,1.978-7.516S3251.725,536.8,3252.637,540.449Z" transform="translate(-3222.606 -439.23)"/><path class="q" d="M3207.863,575.74s6.561-2.979,12.175-2.979,16.355-2.93,16.355-2.93-1.027,1.434-2.685,3.366c-3.643,4.245-9.077,9.232-14.613,8.393-8.056-1.221-9.8-5.01-9.8-5.01s6.347,3.015,10.741,2.527,10.253-6.1,10.253-6.1S3215.675,577.693,3207.863,575.74Z" transform="translate(-3170.115 -440.426)"/><path class="q" d="M3230.247,554.466s-4.193,7.6-1.45,8.565,9.208,0,9.208,0-7.758.485-7.919-2.1A56.312,56.312,0,0,1,3230.247,554.466Z" transform="translate(-3191.049 -439.903)"/><path class="r" d="M3244.77,522.86s4.785-8.311,7.178-8.562,5.54,2.015,5.54,2.015a34.436,34.436,0,0,0-5.288-.631C3249.9,515.656,3244.77,522.86,3244.77,522.86Z" transform="translate(-3226.859 -438.536)"/><path class="r" d="M3207.864,514.137s4.533-4.011,9.443-4.011,16.274,4.911,16.274,4.911-14.762-4.533-17.659-3.651S3207.864,514.137,3207.864,514.137Z" transform="translate(-3167.303 -438.395)"/><path class="u" d="M3218.294,555.625c7.452-3.394,9.879-13.6,10.66-20.462,4.393,6.536,12.631,16.456,22.344,16.756.1,0,.208,0,.305,0,14.248,0,21.129-30.5,21.875-34a1.992,1.992,0,0,0-2.432-2.34l-43.94,11.088-35.764,4.041a1.987,1.987,0,0,0-1.48,3c1.532,2.528,14.051,22.658,24.98,22.658A8.232,8.232,0,0,0,3218.294,555.625Zm7.023-24.775c-.259,6.368-2.075,18.154-8.669,21.157-5.718,2.616-15.674-8.585-21.708-17.708Zm43.53-10.619c-2.545,9.926-8.859,27.716-17.243,27.716-.062,0-.124,0-.18,0-9.469-.29-17.962-12.833-21.072-18.016Z" transform="translate(-3189.578 -438.579)"/></g><g transform="translate(0 299.218)"><path class="n" d="M3283.579,766.459S3277.39,872.942,3274.6,880.5a61.656,61.656,0,0,0-3.174,20.677,59.713,59.713,0,0,0,3.174,16.81c1.927,5.58,7.953,16.9,3.184,25.343s0,8.976,0,8.976,22.688,8.976,21.632-18.48,4.123-25.343,4.7-31.15-5.757-3.7-10.509-11.089-3.7-24.287.527-34.318,21.2-52.8,20.9-71.806-10.615-32.324-10.037-38.131S3283.579,766.459,3283.579,766.459Z" transform="translate(-3271.412 -745.651)"/><path class="q" d="M3272.4,766.43s22.5-25.764,21.918-19.955,9.233,19.955,9.537,38.963-16.672,61.774-20.9,71.806-5.28,26.927-.527,34.318,11.088,5.28,10.509,11.089c-.409,4.113-3.119,4.3-4.294,13.786l-6.711-.751s-2.056-31.4-4.869-50.413,10.69-53.447,10.69-53.447c7.751-30.742.007-34.4-16.348-24.924C3272.034,774.754,3272.4,766.43,3272.4,766.43Z" transform="translate(-3260.237 -745.622)"/><path class="v" d="M3293.692,906.137c-.648,3.731-2.754,10.958-2.9,14.743-.211,5.466,3.58,18.985.4,21.549s-17.28,9.363-17.28,9.363-6.772,4.305-4.24,7.088,15.723,4.062,21.521,1.926S3303.4,947.13,3303.4,947.13s-5.556-20.086-4.274-23.932,13.583,11.539,13.583,11.539l2.229-9.828-12.822-10.685s4.274-1.71,2.993-8.12-11.031-7.717-11.031-7.717S3294.024,904.225,3293.692,906.137Z" transform="translate(-3269.091 -750.818)"/></g><g transform="translate(16.293 330.515)"><path class="n" d="M3200.121,778.021s-21.311,14.018-19.7,24.262,76.135,45.2,84.967,79.916c0,0-3.127,14.292,14.012,44.339l-8.206,11.335s21.593,5.76,24.008-8.12-5.959-21.63-4.378-29.076-1.166-17.847-1.166-17.847-18.789-.988-22.309-18.374-20.485-54.39-28.076-61.852S3200.121,778.021,3200.121,778.021Z" transform="translate(-3180.338 -778.021)"/><path class="q" d="M3231.4,778.021s24.66,13.379,35.62,21.637a51.662,51.662,0,0,0-12.039-1.909c-16.222-.6-31.817,4.791-31.817,4.791s75.44,55.249,73.507,79.659c-8.832-34.714-83.351-69.671-84.967-79.916S3231.4,778.021,3231.4,778.021Z" transform="translate(-3211.621 -778.021)"/><path class="v" d="M3183.138,892.312c-.165,3.673-1.326,10.9-.985,14.558.492,5.284,5.981,17.783,3.16,20.668s-15.929,11.285-15.929,11.285-6.162,5.035-3.3,7.375,16.105,1.831,21.579-.99,10.35-14.761,10.35-14.761-8.08-18.581-7.3-22.449,14.942,9.3,14.942,9.3l.95-9.747-14.076-8.58s4.017-2.208,1.925-8.2-11.924-5.965-11.924-5.965S3183.223,890.429,3183.138,892.312Z" transform="translate(-3076.798 -781.653)"/></g><g transform="translate(10.606 259.95)"><path class="w" d="M3297.44,749.148s8.681,29.827-14.528,38.559c-46.634,17.546-62.532,4.069-93.347,10.6,0,0-27.044-18.217-38.563-23.154s-23.143-10-23.143-10-4.54-24.032,71.99-33.514c41.225-5.108,51.331-16.7,68.8-26.671C3268.645,704.972,3292.453,730.079,3297.44,749.148Z" transform="translate(-3127.29 -704.972)"/><path class="v" d="M3206.024,766.215c-10.62-26.971-7.058-39.363-26.923-40.162,0,0-48.2,19.867-51.06,20.787s25.625-24.483,25.625-24.483l-4.119-1.818c10.329-4.884,17.393-10.436,26.379-15.567,0,0,18.228,19.222,26.125,36.8a47.525,47.525,0,0,1,2.67,7.372A49.278,49.278,0,0,1,3206.024,766.215Z" transform="translate(-3034.573 -704.972)"/><path class="v" d="M3189.624,749.748c12.19-3.431,63.556-16.6,66.175-12.144,6.9,11.737-42.863,22.994-9.642,49.677,3.653,2.935,31.942,5.063,55.307,9.8-19.56.128-36.788-1.556-55.028,2.31-9.009-5.934-28.6-18.886-38.563-23.154-11.519-4.938-23.142-10-23.142-10S3181.7,758.774,3189.624,749.748Z" transform="translate(-3184.162 -706.051)"/></g></g><g transform="translate(0 365.323)"><rect class="x" width="318.495" height="10.76" transform="translate(0 0)"/><rect class="y" width="267.2" height="10.76" transform="translate(27.243 61.338)"/><rect class="y" width="21.452" height="132.071" transform="translate(18.633 10.76)"/><rect class="y" width="21.452" height="132.071" transform="translate(283.717 10.76)"/></g><g transform="translate(32.753 265.726)"><path class="z" d="M0,0H185.953a5.17,5.17,0,0,1,5.17,5.17v.643a0,0,0,0,1,0,0H4.167A4.167,4.167,0,0,1,0,1.646V0A0,0,0,0,1,0,0Z" transform="translate(11.051 93.865)"/><path class="aa" d="M3281.133,806.812h134.585a3.408,3.408,0,0,0,3.456-3.92l-10.552-88.02a4.548,4.548,0,0,0-4.4-3.921H3269.642a3.409,3.409,0,0,0-3.457,3.921l10.552,88.02A4.547,4.547,0,0,0,3281.133,806.812Z" transform="translate(-3266.156 -710.951)"/><path class="ab" d="M3359.975,765.423c.076,5.5-4.236,9.052-9.631,7.93a13,13,0,0,1-9.907-11.995c-.076-5.5,4.236-9.051,9.631-7.929A13,13,0,0,1,3359.975,765.423Z" transform="translate(-3278.683 -712.389)"/></g></g></g></svg>